M48
;Layer_Color=9474304
;FILE_FORMAT=4:4
METRIC
;TYPE=PLATED
T1F00S00C0.3000
T2F00S00C0.6000
T3F00S00C1.0000
T4F00S00C1.2000
%
T01
X01305000Y00986750
X01531500Y01041000
X01447250Y01139500
X01522750Y01221250
X01441750Y01311250
T02
X01245000Y00950000
Y01000000
X01362300Y00975000
X01387700
X01565000Y01000000
Y00950000
T03
X01185000Y00905000
Y00962500
Y00987500
X01245000Y00905000
X01387700
X01445000
X01505000
Y00962500
Y00987500
X01565000Y00905000
X01217500Y01125000
X01192500
X01362500Y01270000
X01387500
X01395000Y01325000
X01355000
X01559750Y01319000
Y01294000
T04
X01350000Y01090000
X01375000
X01400000
M30
