G04*
G04 #@! TF.GenerationSoftware,Altium Limited,Altium Designer,20.2.7 (254)*
G04*
G04 Layer_Color=65535*
%FSAX44Y44*%
%MOMM*%
G71*
G04*
G04 #@! TF.SameCoordinates,51ACB8CF-5D8B-4831-AD9A-68E97BBA3DB7*
G04*
G04*
G04 #@! TF.FilePolarity,Positive*
G04*
G01*
G75*
%ADD10C,0.2000*%
%ADD11C,0.2540*%
%ADD12C,0.1524*%
%ADD13R,0.5500X3.5000*%
%ADD14C,0.1000*%
D10*
X01406300Y01270000D02*
G03*
X01406300Y01270000I-00031300J00000000D01*
G01*
X01400000Y00975000D02*
G03*
X01400000Y00975000I-00025000J00000000D01*
G01*
X01580000Y00905000D02*
G03*
X01580000Y00905000I-00015000J00000000D01*
G01*
X01520000D02*
G03*
X01520000Y00905000I-00015000J00000000D01*
G01*
X01260000D02*
G03*
X01260000Y00905000I-00015000J00000000D01*
G01*
X01200000D02*
G03*
X01200000Y00905000I-00015000J00000000D01*
G01*
X01402700D02*
G03*
X01402700Y00905000I-00015000J00000000D01*
G01*
X01410000Y01325000D02*
G03*
X01410000Y01325000I-00015000J00000000D01*
G01*
X01370000D02*
G03*
X01370000Y01325000I-00015000J00000000D01*
G01*
X01460000Y00905000D02*
G03*
X01460000Y00905000I-00015000J00000000D01*
G01*
X01536300Y00975000D02*
G03*
X01536300Y00975000I-00031300J00000000D01*
G01*
X01216300D02*
G03*
X01216300Y00975000I-00031300J00000000D01*
G01*
X01236300Y01125000D02*
G03*
X01236300Y01125000I-00031300J00000000D01*
G01*
X01591050Y01306500D02*
G03*
X01591050Y01306500I-00031300J00000000D01*
G01*
X01526750Y01065000D02*
X01536000D01*
X01512750Y01271750D02*
Y01281000D01*
Y01286500D02*
Y01295750D01*
X01380750Y01252250D02*
X01393250D01*
X01387000Y01246000D02*
Y01258500D01*
X01412000Y01248500D02*
X01421250D01*
X01462250Y01280250D02*
Y01286250D01*
X01482250Y01280250D02*
Y01286250D01*
X01462250D02*
X01482250D01*
X01462250Y01280250D02*
X01482250D01*
X01380750Y00984500D02*
X01397750D01*
X01382490Y00986240D02*
X01396647D01*
X01380750Y00989452D02*
X01394084D01*
X01382640Y00991986D02*
X01392640D01*
X01380814Y00993017D02*
X01390814D01*
X01380750Y00994962D02*
X01388192D01*
X01382594Y00996199D02*
X01386542D01*
X01381563Y00997230D02*
X01384627D01*
X01380750Y00984500D02*
Y00999000D01*
Y00994048D02*
X01389340D01*
X01380750Y00984500D02*
X01382490Y00986240D01*
X01382000Y00991072D02*
X01393230D01*
X01382679Y00987802D02*
X01395616D01*
X01380750Y00989731D02*
X01382679Y00987802D01*
X01381459D02*
X01395616D01*
X01381563Y00997230D02*
X01382594Y00996199D01*
X01380750Y00965500D02*
X01397750D01*
X01382490Y00963760D02*
X01396647D01*
X01380750Y00960548D02*
X01394084D01*
X01382640Y00958014D02*
X01392640D01*
X01380814Y00956983D02*
X01390814D01*
X01380750Y00955039D02*
X01388192D01*
X01382594Y00953801D02*
X01386542D01*
X01381563Y00952770D02*
X01384627D01*
X01380750Y00951000D02*
Y00965500D01*
Y00955952D02*
X01389340D01*
X01380750Y00965500D02*
X01382490Y00963760D01*
X01382000Y00958928D02*
X01393230D01*
X01382679Y00962198D02*
X01395616D01*
X01380750Y00960269D02*
X01382679Y00962198D01*
X01381459D02*
X01395616D01*
X01381563Y00952770D02*
X01382594Y00953801D01*
X01427250Y01287750D02*
X01456250D01*
X01427250Y01278750D02*
X01456250D01*
Y01287750D01*
X01427250Y01278750D02*
Y01287750D01*
X01553000Y00939500D02*
X01577000D01*
Y01010500D01*
X01553000D02*
X01577000D01*
X01553000Y00939500D02*
Y01010500D01*
X01233000Y00939500D02*
X01257000D01*
Y01010500D01*
X01233000D02*
X01257000D01*
X01233000Y00939500D02*
Y01010500D01*
X01270250Y00993500D02*
X01279500D01*
X01275000Y01120250D02*
Y01129500D01*
X01327250Y00970500D02*
Y00979750D01*
X01535500Y01253500D02*
X01544750D01*
X01412000Y01291500D02*
X01421250D01*
X01535500Y01228000D02*
X01544750D01*
X01516500Y00987000D02*
X01529000D01*
X01522750Y00980750D02*
Y00993250D01*
X01202750Y00980750D02*
Y00993250D01*
X01196500Y00987000D02*
X01209000D01*
X01217000Y01101000D02*
Y01113500D01*
X01210750Y01107250D02*
X01223250D01*
X01571250Y01318500D02*
X01583750D01*
X01577500Y01312250D02*
Y01324750D01*
X01501000Y01107000D02*
X01549000D01*
X01501000Y01143000D02*
X01549000D01*
X01501000Y01107000D02*
Y01143000D01*
X01549000Y01107000D02*
Y01143000D01*
X01498500Y01301250D02*
X01504000D01*
X01498500Y01336250D02*
X01504000D01*
Y01301250D02*
Y01336250D01*
X01498500Y01301250D02*
Y01336250D01*
X01431500Y01101500D02*
Y01143500D01*
Y01176500D02*
Y01215000D01*
X01318500Y01101500D02*
Y01143500D01*
Y01176500D02*
Y01215000D01*
Y01101500D02*
X01431500D01*
X01318500Y01215000D02*
X01431500D01*
D11*
X01456000Y01286500D02*
G03*
X01456000Y01286500I-00001000J00000000D01*
G01*
X01503285Y01108298D02*
G03*
X01503285Y01108298I-00001000J00000000D01*
G01*
D12*
X01551563Y01062083D02*
X01543437D01*
Y01066146D01*
X01544792Y01067500D01*
X01547500D01*
X01548854Y01066146D01*
Y01062083D01*
Y01064791D02*
X01551563Y01067500D01*
Y01070209D02*
Y01072917D01*
Y01071563D01*
X01543437D01*
X01544792Y01070209D01*
X01505729Y01258437D02*
Y01266563D01*
X01509792D01*
X01511146Y01265209D01*
Y01262500D01*
X01509792Y01261146D01*
X01505729D01*
X01508437D02*
X01511146Y01258437D01*
X01513854Y01259792D02*
X01515208Y01258437D01*
X01517917D01*
X01519271Y01259792D01*
Y01265209D01*
X01517917Y01266563D01*
X01515208D01*
X01513854Y01265209D01*
Y01263854D01*
X01515208Y01262500D01*
X01519271D01*
X01496563Y01280729D02*
X01488437D01*
Y01284792D01*
X01489792Y01286146D01*
X01492500D01*
X01493854Y01284792D01*
Y01280729D01*
Y01283437D02*
X01496563Y01286146D01*
X01488437Y01294271D02*
X01489792Y01291563D01*
X01492500Y01288854D01*
X01495208D01*
X01496563Y01290208D01*
Y01292917D01*
X01495208Y01294271D01*
X01493854D01*
X01492500Y01292917D01*
Y01288854D01*
X01329792Y01293646D02*
X01328437Y01292292D01*
Y01289583D01*
X01329792Y01288229D01*
X01335208D01*
X01336563Y01289583D01*
Y01292292D01*
X01335208Y01293646D01*
X01328437Y01301771D02*
X01329792Y01299063D01*
X01332500Y01296354D01*
X01335208D01*
X01336563Y01297708D01*
Y01300417D01*
X01335208Y01301771D01*
X01333854D01*
X01332500Y01300417D01*
Y01296354D01*
X01421563Y01263229D02*
X01413437D01*
Y01267291D01*
X01414792Y01268646D01*
X01417500D01*
X01418854Y01267291D01*
Y01263229D01*
Y01265937D02*
X01421563Y01268646D01*
X01413437Y01276771D02*
Y01271354D01*
X01417500D01*
X01416146Y01274063D01*
Y01275417D01*
X01417500Y01276771D01*
X01420208D01*
X01421563Y01275417D01*
Y01272709D01*
X01420208Y01271354D01*
X01467083Y01264063D02*
Y01255937D01*
X01472500D01*
X01475208D02*
X01477917D01*
X01476563D01*
Y01264063D01*
X01475208Y01262708D01*
X01499583Y01171813D02*
Y01165042D01*
X01500937Y01163687D01*
X01503646D01*
X01505000Y01165042D01*
Y01171813D01*
X01507708Y01163687D02*
X01510417D01*
X01509063D01*
Y01171813D01*
X01507708Y01170459D01*
X01563063Y01247729D02*
X01554937D01*
Y01251792D01*
X01556292Y01253146D01*
X01559000D01*
X01560354Y01251792D01*
Y01247729D01*
Y01250437D02*
X01563063Y01253146D01*
X01554937Y01255854D02*
Y01261271D01*
X01556292D01*
X01561709Y01255854D01*
X01563063D01*
Y01218843D02*
X01554937D01*
Y01222906D01*
X01556292Y01224260D01*
X01559000D01*
X01560354Y01222906D01*
Y01218843D01*
Y01221552D02*
X01563063Y01224260D01*
Y01226969D02*
Y01229677D01*
Y01228323D01*
X01554937D01*
X01556292Y01226969D01*
Y01233740D02*
X01554937Y01235094D01*
Y01237803D01*
X01556292Y01239157D01*
X01561709D01*
X01563063Y01237803D01*
Y01235094D01*
X01561709Y01233740D01*
X01556292D01*
X01422813Y01306479D02*
X01414687D01*
Y01310542D01*
X01416042Y01311896D01*
X01418750D01*
X01420104Y01310542D01*
Y01306479D01*
Y01309187D02*
X01422813Y01311896D01*
X01416042Y01314604D02*
X01414687Y01315959D01*
Y01318667D01*
X01416042Y01320021D01*
X01417396D01*
X01418750Y01318667D01*
X01420104Y01320021D01*
X01421458D01*
X01422813Y01318667D01*
Y01315959D01*
X01421458Y01314604D01*
X01420104D01*
X01418750Y01315959D01*
X01417396Y01314604D01*
X01416042D01*
X01418750Y01315959D02*
Y01318667D01*
X01435729Y01259063D02*
Y01252292D01*
X01437083Y01250937D01*
X01439792D01*
X01441146Y01252292D01*
Y01259063D01*
X01443854Y01257709D02*
X01445208Y01259063D01*
X01447917D01*
X01449271Y01257709D01*
Y01256354D01*
X01447917Y01255000D01*
X01446563D01*
X01447917D01*
X01449271Y01253646D01*
Y01252292D01*
X01447917Y01250937D01*
X01445208D01*
X01443854Y01252292D01*
X01488479Y01351563D02*
Y01343437D01*
X01492542D01*
X01493896Y01344792D01*
Y01350208D01*
X01492542Y01351563D01*
X01488479D01*
X01502021Y01343437D02*
X01496604D01*
X01502021Y01348854D01*
Y01350208D01*
X01500667Y01351563D01*
X01497959D01*
X01496604Y01350208D01*
X01389583Y01356019D02*
X01388229Y01357373D01*
X01385520D01*
X01384166Y01356019D01*
Y01354665D01*
X01385520Y01353311D01*
X01388229D01*
X01389583Y01351956D01*
Y01350602D01*
X01388229Y01349248D01*
X01385520D01*
X01384166Y01350602D01*
X01392292Y01349248D02*
Y01357373D01*
X01396354D01*
X01397708Y01356019D01*
Y01353311D01*
X01396354Y01351956D01*
X01392292D01*
X01405834Y01357373D02*
X01403125Y01356019D01*
X01400417Y01353311D01*
Y01350602D01*
X01401771Y01349248D01*
X01404480D01*
X01405834Y01350602D01*
Y01351956D01*
X01404480Y01353311D01*
X01400417D01*
X01349583Y01356019D02*
X01348229Y01357373D01*
X01345520D01*
X01344166Y01356019D01*
Y01354665D01*
X01345520Y01353311D01*
X01348229D01*
X01349583Y01351956D01*
Y01350602D01*
X01348229Y01349248D01*
X01345520D01*
X01344166Y01350602D01*
X01352292Y01349248D02*
Y01357373D01*
X01356354D01*
X01357708Y01356019D01*
Y01353311D01*
X01356354Y01351956D01*
X01352292D01*
X01360417Y01357373D02*
X01365834D01*
Y01356019D01*
X01360417Y01350602D01*
Y01349248D01*
X01563250Y01024458D02*
X01561896Y01025813D01*
X01559187D01*
X01557833Y01024458D01*
Y01019042D01*
X01559187Y01017687D01*
X01561896D01*
X01563250Y01019042D01*
X01565959Y01017687D02*
X01568667D01*
X01567313D01*
Y01025813D01*
X01565959Y01024458D01*
X01479396Y01018959D02*
X01478042Y01020313D01*
X01475333D01*
X01473979Y01018959D01*
Y01013542D01*
X01475333Y01012187D01*
X01478042D01*
X01479396Y01013542D01*
X01487521Y01012187D02*
X01482104D01*
X01487521Y01017604D01*
Y01018959D01*
X01486167Y01020313D01*
X01483459D01*
X01482104Y01018959D01*
X01322229Y00984937D02*
Y00993063D01*
X01326292D01*
X01327646Y00991709D01*
Y00989000D01*
X01326292Y00987646D01*
X01322229D01*
X01324937D02*
X01327646Y00984937D01*
X01334417D02*
Y00993063D01*
X01330354Y00989000D01*
X01335771D01*
X01368583Y01019313D02*
Y01011187D01*
X01372646D01*
X01374000Y01012542D01*
Y01017959D01*
X01372646Y01019313D01*
X01368583D01*
X01376709Y01011187D02*
X01379417D01*
X01378063D01*
Y01019313D01*
X01376709Y01017959D01*
X01184396Y01021459D02*
X01183042Y01022813D01*
X01180333D01*
X01178979Y01021459D01*
Y01016042D01*
X01180333Y01014687D01*
X01183042D01*
X01184396Y01016042D01*
X01191167Y01014687D02*
Y01022813D01*
X01187104Y01018750D01*
X01192521D01*
X01242646Y01024708D02*
X01241292Y01026063D01*
X01238583D01*
X01237229Y01024708D01*
Y01019292D01*
X01238583Y01017937D01*
X01241292D01*
X01242646Y01019292D01*
X01245354Y01024708D02*
X01246709Y01026063D01*
X01249417D01*
X01250771Y01024708D01*
Y01023354D01*
X01249417Y01022000D01*
X01248063D01*
X01249417D01*
X01250771Y01020646D01*
Y01019292D01*
X01249417Y01017937D01*
X01246709D01*
X01245354Y01019292D01*
X01295813Y00986229D02*
X01287687D01*
Y00990292D01*
X01289042Y00991646D01*
X01291750D01*
X01293104Y00990292D01*
Y00986229D01*
Y00988937D02*
X01295813Y00991646D01*
Y00999771D02*
Y00994354D01*
X01290396Y00999771D01*
X01289042D01*
X01287687Y00998417D01*
Y00995708D01*
X01289042Y00994354D01*
X01560937Y00933208D02*
X01559583Y00934563D01*
X01556875D01*
X01555520Y00933208D01*
Y00931854D01*
X01556875Y00930500D01*
X01559583D01*
X01560937Y00929146D01*
Y00927792D01*
X01559583Y00926437D01*
X01556875D01*
X01555520Y00927792D01*
X01563646Y00926437D02*
Y00934563D01*
X01567708D01*
X01569063Y00933208D01*
Y00930500D01*
X01567708Y00929146D01*
X01563646D01*
X01571771Y00926437D02*
X01574480D01*
X01573125D01*
Y00934563D01*
X01571771Y00933208D01*
X01499583D02*
X01498229Y00934563D01*
X01495520D01*
X01494166Y00933208D01*
Y00931854D01*
X01495520Y00930500D01*
X01498229D01*
X01499583Y00929146D01*
Y00927792D01*
X01498229Y00926437D01*
X01495520D01*
X01494166Y00927792D01*
X01502292Y00926437D02*
Y00934563D01*
X01506354D01*
X01507708Y00933208D01*
Y00930500D01*
X01506354Y00929146D01*
X01502292D01*
X01515834Y00926437D02*
X01510417D01*
X01515834Y00931854D01*
Y00933208D01*
X01514480Y00934563D01*
X01511771D01*
X01510417Y00933208D01*
X01439583D02*
X01438229Y00934563D01*
X01435520D01*
X01434166Y00933208D01*
Y00931854D01*
X01435520Y00930500D01*
X01438229D01*
X01439583Y00929146D01*
Y00927792D01*
X01438229Y00926437D01*
X01435520D01*
X01434166Y00927792D01*
X01442292Y00926437D02*
Y00934563D01*
X01446354D01*
X01447708Y00933208D01*
Y00930500D01*
X01446354Y00929146D01*
X01442292D01*
X01450417Y00933208D02*
X01451771Y00934563D01*
X01454480D01*
X01455834Y00933208D01*
Y00931854D01*
X01454480Y00930500D01*
X01455834Y00929146D01*
Y00927792D01*
X01454480Y00926437D01*
X01451771D01*
X01450417Y00927792D01*
Y00929146D01*
X01451771Y00930500D01*
X01450417Y00931854D01*
Y00933208D01*
X01451771Y00930500D02*
X01454480D01*
X01382283Y00933208D02*
X01380929Y00934563D01*
X01378220D01*
X01376866Y00933208D01*
Y00931854D01*
X01378220Y00930500D01*
X01380929D01*
X01382283Y00929146D01*
Y00927792D01*
X01380929Y00926437D01*
X01378220D01*
X01376866Y00927792D01*
X01384992Y00926437D02*
Y00934563D01*
X01389054D01*
X01390408Y00933208D01*
Y00930500D01*
X01389054Y00929146D01*
X01384992D01*
X01398534Y00934563D02*
X01393117D01*
Y00930500D01*
X01395825Y00931854D01*
X01397180D01*
X01398534Y00930500D01*
Y00927792D01*
X01397180Y00926437D01*
X01394471D01*
X01393117Y00927792D01*
X01239583Y00933208D02*
X01238229Y00934563D01*
X01235520D01*
X01234166Y00933208D01*
Y00931854D01*
X01235520Y00930500D01*
X01238229D01*
X01239583Y00929146D01*
Y00927792D01*
X01238229Y00926437D01*
X01235520D01*
X01234166Y00927792D01*
X01242291Y00926437D02*
Y00934563D01*
X01246354D01*
X01247709Y00933208D01*
Y00930500D01*
X01246354Y00929146D01*
X01242291D01*
X01250417Y00933208D02*
X01251771Y00934563D01*
X01254480D01*
X01255834Y00933208D01*
Y00931854D01*
X01254480Y00930500D01*
X01253125D01*
X01254480D01*
X01255834Y00929146D01*
Y00927792D01*
X01254480Y00926437D01*
X01251771D01*
X01250417Y00927792D01*
X01179583Y00934458D02*
X01178229Y00935813D01*
X01175520D01*
X01174166Y00934458D01*
Y00933104D01*
X01175520Y00931750D01*
X01178229D01*
X01179583Y00930396D01*
Y00929042D01*
X01178229Y00927687D01*
X01175520D01*
X01174166Y00929042D01*
X01182292Y00927687D02*
Y00935813D01*
X01186354D01*
X01187709Y00934458D01*
Y00931750D01*
X01186354Y00930396D01*
X01182292D01*
X01194480Y00927687D02*
Y00935813D01*
X01190417Y00931750D01*
X01195834D01*
X01317498Y01224026D02*
Y01232151D01*
X01321561D01*
X01322915Y01230797D01*
Y01228089D01*
X01321561Y01226734D01*
X01317498D01*
X01329686Y01232151D02*
X01326978D01*
X01325623Y01230797D01*
Y01225380D01*
X01326978Y01224026D01*
X01329686D01*
X01331040Y01225380D01*
Y01230797D01*
X01329686Y01232151D01*
X01333749D02*
X01339166D01*
X01336457D01*
Y01224026D01*
X01341874D02*
X01344583D01*
X01343228D01*
Y01232151D01*
X01341874Y01230797D01*
X01263650Y01139190D02*
Y01147315D01*
X01267713D01*
X01269067Y01145961D01*
Y01143253D01*
X01267713Y01141898D01*
X01263650D01*
X01266358D02*
X01269067Y01139190D01*
X01271775Y01145961D02*
X01273130Y01147315D01*
X01275838D01*
X01277192Y01145961D01*
Y01144607D01*
X01275838Y01143253D01*
X01274484D01*
X01275838D01*
X01277192Y01141898D01*
Y01140544D01*
X01275838Y01139190D01*
X01273130D01*
X01271775Y01140544D01*
X01177627Y01172631D02*
X01176273Y01173985D01*
X01173564D01*
X01172210Y01172631D01*
Y01167214D01*
X01173564Y01165860D01*
X01176273D01*
X01177627Y01167214D01*
X01185752Y01173985D02*
X01180335D01*
Y01169923D01*
X01183044Y01171277D01*
X01184398D01*
X01185752Y01169923D01*
Y01167214D01*
X01184398Y01165860D01*
X01181690D01*
X01180335Y01167214D01*
X01532465Y01354241D02*
X01531111Y01355595D01*
X01528402D01*
X01527048Y01354241D01*
Y01348824D01*
X01528402Y01347470D01*
X01531111D01*
X01532465Y01348824D01*
X01535173Y01355595D02*
X01540590D01*
Y01354241D01*
X01535173Y01348824D01*
Y01347470D01*
D13*
X01501250Y01318750D02*
D03*
D14*
X01125000Y00925000D02*
G03*
X01175000Y00875000I00050000J00000000D01*
G01*
X01625000Y01325000D02*
G03*
X01575000Y01375000I-00050000J00000000D01*
G01*
Y00875000D02*
G03*
X01625000Y00925000I00000000J00050000D01*
G01*
X01175000Y01375000D02*
G03*
X01125000Y01325000I00000000J-00050000D01*
G01*
X01125000Y00925000D02*
X01125000Y01325000D01*
X01625000Y00925000D02*
Y01325000D01*
X01175000Y00875000D02*
X01575000Y00875000D01*
X01175000Y01375000D02*
X01575000D01*
M02*
