G04*
G04 #@! TF.GenerationSoftware,Altium Limited,Altium Designer,20.2.7 (254)*
G04*
G04 Layer_Color=8388736*
%FSAX44Y44*%
%MOMM*%
G71*
G04*
G04 #@! TF.SameCoordinates,51ACB8CF-5D8B-4831-AD9A-68E97BBA3DB7*
G04*
G04*
G04 #@! TF.FilePolarity,Negative*
G04*
G01*
G75*
%ADD14C,0.1000*%
%ADD21C,0.1520*%
%ADD22R,1.1032X0.8032*%
%ADD23R,0.8032X1.1032*%
%ADD24R,2.2032X0.8032*%
%ADD25R,0.9032X1.2032*%
%ADD26R,1.0032X1.4032*%
%ADD27R,1.7032X2.3032*%
%ADD28C,1.7032*%
%ADD29R,1.7032X1.7032*%
%ADD30C,1.4032*%
%ADD31C,2.2032*%
%ADD32R,1.7032X1.7032*%
%ADD33C,1.8032*%
%ADD34R,2.8032X2.8032*%
%ADD35C,0.8032*%
D14*
X01125000Y00925000D02*
G03*
X01175000Y00875000I00050000J00000000D01*
G01*
X01625000Y01325000D02*
G03*
X01575000Y01375000I-00050000J00000000D01*
G01*
Y00875000D02*
G03*
X01625000Y00925000I00000000J00050000D01*
G01*
X01175000Y01375000D02*
G03*
X01125000Y01325000I00000000J-00050000D01*
G01*
X01125000Y00925000D02*
X01125000Y01325000D01*
X01625000Y00925000D02*
Y01325000D01*
X01175000Y00875000D02*
X01575000Y00875000D01*
X01175000Y01375000D02*
X01575000D01*
D21*
X01141520Y01294641D02*
Y01302768D01*
X01145584D01*
X01146938Y01301414D01*
Y01298705D01*
X01145584Y01297350D01*
X01141520D01*
X01149647Y01300059D02*
X01151002D01*
Y01298705D01*
X01149647D01*
Y01300059D01*
Y01295995D02*
X01151002D01*
Y01294641D01*
X01149647D01*
Y01295995D01*
X01164548Y01302768D02*
Y01294641D01*
X01169966D01*
X01172675D02*
X01175384D01*
X01174029D01*
Y01300059D01*
X01172675D01*
X01184866Y01291932D02*
Y01300059D01*
X01180802D01*
X01179448Y01298705D01*
Y01295995D01*
X01180802Y01294641D01*
X01184866D01*
X01187575Y01300059D02*
Y01295995D01*
X01188930Y01294641D01*
X01192993D01*
Y01300059D01*
X01195703Y01294641D02*
X01198412D01*
X01197057D01*
Y01300059D01*
X01195703D01*
X01207894Y01302768D02*
Y01294641D01*
X01203830D01*
X01202475Y01295995D01*
Y01298705D01*
X01203830Y01300059D01*
X01207894D01*
X01218730Y01302768D02*
Y01294641D01*
X01222794D01*
X01224148Y01295995D01*
Y01297350D01*
X01222794Y01298705D01*
X01218730D01*
X01222794D01*
X01224148Y01300059D01*
Y01301414D01*
X01222794Y01302768D01*
X01218730D01*
X01228212Y01294641D02*
X01230921D01*
X01232276Y01295995D01*
Y01298705D01*
X01230921Y01300059D01*
X01228212D01*
X01226858Y01298705D01*
Y01295995D01*
X01228212Y01294641D01*
X01234985D02*
X01239049D01*
X01240403Y01295995D01*
X01239049Y01297350D01*
X01236339D01*
X01234985Y01298705D01*
X01236339Y01300059D01*
X01240403D01*
X01243112Y01294641D02*
X01247176D01*
X01248531Y01295995D01*
X01247176Y01297350D01*
X01244467D01*
X01243112Y01298705D01*
X01244467Y01300059D01*
X01248531D01*
X01252594Y01301414D02*
Y01300059D01*
X01251240D01*
X01253949D01*
X01252594D01*
Y01295995D01*
X01253949Y01294641D01*
X01262076D02*
X01259367D01*
X01258012Y01295995D01*
Y01298705D01*
X01259367Y01300059D01*
X01262076D01*
X01263431Y01298705D01*
Y01297350D01*
X01258012D01*
X01266140Y01300059D02*
Y01294641D01*
Y01297350D01*
X01267495Y01298705D01*
X01268849Y01300059D01*
X01270204D01*
X01286458Y01294641D02*
Y01302768D01*
X01282395Y01298705D01*
X01287813D01*
X01290522Y01301414D02*
X01291877Y01302768D01*
X01294586D01*
X01295940Y01301414D01*
Y01295995D01*
X01294586Y01294641D01*
X01291877D01*
X01290522Y01295995D01*
Y01301414D01*
X01304068Y01302768D02*
Y01294641D01*
X01300004D01*
X01298649Y01295995D01*
Y01298705D01*
X01300004Y01300059D01*
X01304068D01*
X01306777Y01302768D02*
Y01294641D01*
X01310841D01*
X01312195Y01295995D01*
Y01297350D01*
X01310841Y01298705D01*
X01306777D01*
X01310841D01*
X01312195Y01300059D01*
Y01301414D01*
X01310841Y01302768D01*
X01306777D01*
X01141520Y01286658D02*
Y01278531D01*
X01145584D01*
X01146938Y01279885D01*
Y01285304D01*
X01145584Y01286658D01*
X01141520D01*
X01149647Y01283949D02*
X01151002D01*
Y01282594D01*
X01149647D01*
Y01283949D01*
Y01279885D02*
X01151002D01*
Y01278531D01*
X01149647D01*
Y01279885D01*
X01164548Y01278531D02*
Y01286658D01*
X01167257Y01283949D01*
X01169966Y01286658D01*
Y01278531D01*
X01172675D02*
Y01279885D01*
X01174029D01*
Y01278531D01*
X01172675D01*
X01187575Y01286658D02*
Y01278531D01*
Y01281240D01*
X01192993Y01286658D01*
X01188930Y01282594D01*
X01192993Y01278531D01*
X01197057D02*
X01199766D01*
X01201121Y01279885D01*
Y01282594D01*
X01199766Y01283949D01*
X01197057D01*
X01195703Y01282594D01*
Y01279885D01*
X01197057Y01278531D01*
X01203830Y01283949D02*
Y01279885D01*
X01205184Y01278531D01*
X01206539Y01279885D01*
X01207894Y01278531D01*
X01209248Y01279885D01*
Y01283949D01*
X01213312D02*
X01216021D01*
X01217376Y01282594D01*
Y01278531D01*
X01213312D01*
X01211957Y01279885D01*
X01213312Y01281240D01*
X01217376D01*
X01220085Y01278531D02*
X01222794D01*
X01221439D01*
Y01286658D01*
X01220085D01*
X01232276Y01283949D02*
X01228212D01*
X01226858Y01282594D01*
Y01279885D01*
X01228212Y01278531D01*
X01232276D01*
X01234985Y01283949D02*
X01240403D01*
X01234985Y01278531D01*
X01240403D01*
X01243112Y01283949D02*
Y01279885D01*
X01244467Y01278531D01*
X01248531D01*
Y01277176D01*
X01247176Y01275822D01*
X01245822D01*
X01248531Y01278531D02*
Y01283949D01*
X01251240Y01278531D02*
Y01286658D01*
Y01281240D02*
X01255303Y01283949D01*
X01251240Y01281240D02*
X01255303Y01278531D01*
X01141520Y01262421D02*
X01144229D01*
X01142875D01*
Y01270548D01*
X01141520Y01269194D01*
X01148293D02*
X01149647Y01270548D01*
X01152356D01*
X01153711Y01269194D01*
Y01267839D01*
X01152356Y01266485D01*
X01151002D01*
X01152356D01*
X01153711Y01265130D01*
Y01263775D01*
X01152356Y01262421D01*
X01149647D01*
X01148293Y01263775D01*
X01156420Y01262421D02*
Y01263775D01*
X01157775D01*
Y01262421D01*
X01156420D01*
X01163193D02*
X01165902D01*
X01164548D01*
Y01270548D01*
X01163193Y01269194D01*
X01169966D02*
X01171320Y01270548D01*
X01174029D01*
X01175384Y01269194D01*
Y01263775D01*
X01174029Y01262421D01*
X01171320D01*
X01169966Y01263775D01*
Y01269194D01*
X01178093Y01262421D02*
Y01263775D01*
X01179448D01*
Y01262421D01*
X01178093D01*
X01190284D02*
X01184866D01*
X01190284Y01267839D01*
Y01269194D01*
X01188930Y01270548D01*
X01186221D01*
X01184866Y01269194D01*
X01192993D02*
X01194348Y01270548D01*
X01197057D01*
X01198412Y01269194D01*
Y01263775D01*
X01197057Y01262421D01*
X01194348D01*
X01192993Y01263775D01*
Y01269194D01*
X01206539Y01262421D02*
X01201121D01*
X01206539Y01267839D01*
Y01269194D01*
X01205184Y01270548D01*
X01202475D01*
X01201121Y01269194D01*
X01209248Y01262421D02*
X01211957D01*
X01210603D01*
Y01270548D01*
X01209248Y01269194D01*
X01141520Y01257147D02*
Y01251729D01*
X01144229Y01249020D01*
X01146938Y01251729D01*
Y01257147D01*
X01149647Y01254438D02*
X01151002D01*
Y01253084D01*
X01149647D01*
Y01254438D01*
Y01250375D02*
X01151002D01*
Y01249020D01*
X01149647D01*
Y01250375D01*
X01164548Y01249020D02*
X01167257D01*
X01165902D01*
Y01257147D01*
X01164548Y01255793D01*
X01171320Y01249020D02*
Y01250375D01*
X01172675D01*
Y01249020D01*
X01171320D01*
X01178093Y01255793D02*
X01179448Y01257147D01*
X01182157D01*
X01183512Y01255793D01*
Y01250375D01*
X01182157Y01249020D01*
X01179448D01*
X01178093Y01250375D01*
Y01255793D01*
D22*
X01531500Y01071750D02*
D03*
Y01058250D02*
D03*
X01416750Y01255250D02*
D03*
Y01241750D02*
D03*
X01275000Y01000250D02*
D03*
Y00986750D02*
D03*
X01540000Y01246750D02*
D03*
Y01260250D02*
D03*
X01416750Y01298250D02*
D03*
Y01284750D02*
D03*
X01540000Y01221250D02*
D03*
Y01234750D02*
D03*
D23*
X01519500Y01276250D02*
D03*
X01506000D02*
D03*
Y01291250D02*
D03*
X01519500D02*
D03*
X01268250Y01125000D02*
D03*
X01281750D02*
D03*
X01334000Y00975000D02*
D03*
X01320500D02*
D03*
D24*
X01472250Y01292750D02*
D03*
Y01273750D02*
D03*
D25*
X01432250Y01270250D02*
D03*
X01451250D02*
D03*
X01432250Y01296250D02*
D03*
X01451250D02*
D03*
X01441750D02*
D03*
D26*
X01544050Y01152500D02*
D03*
Y01097500D02*
D03*
X01531350Y01152500D02*
D03*
Y01097500D02*
D03*
X01518650Y01152500D02*
D03*
X01505950D02*
D03*
Y01097500D02*
D03*
X01518650D02*
D03*
D27*
X01515050Y01318750D02*
D03*
X01472250D02*
D03*
D28*
X01362500Y01270000D02*
D03*
X01505000Y00962500D02*
D03*
X01185000D02*
D03*
X01192500Y01125000D02*
D03*
X01559750Y01294000D02*
D03*
D29*
X01387500Y01270000D02*
D03*
X01217500Y01125000D02*
D03*
D30*
X01362300Y00975000D02*
D03*
X01387700D02*
D03*
X01565000Y01000000D02*
D03*
Y00950000D02*
D03*
X01245000Y01000000D02*
D03*
Y00950000D02*
D03*
D31*
X01565000Y00905000D02*
D03*
X01505000D02*
D03*
X01245000D02*
D03*
X01185000D02*
D03*
X01387700D02*
D03*
X01395000Y01325000D02*
D03*
X01355000D02*
D03*
X01445000Y00905000D02*
D03*
D32*
X01505000Y00987500D02*
D03*
X01185000D02*
D03*
X01559750Y01319000D02*
D03*
D33*
X01350000Y01090000D02*
D03*
X01400000D02*
D03*
X01375000D02*
D03*
D34*
X01419000Y01160000D02*
D03*
X01331000D02*
D03*
D35*
X01522750Y01221250D02*
D03*
X01441750Y01311250D02*
D03*
X01531500Y01041000D02*
D03*
X01305000Y00986750D02*
D03*
X01447250Y01139500D02*
D03*
M02*
