G04*
G04 #@! TF.GenerationSoftware,Altium Limited,Altium Designer,20.2.7 (254)*
G04*
G04 Layer_Color=16711935*
%FSAX44Y44*%
%MOMM*%
G71*
G04*
G04 #@! TF.SameCoordinates,51ACB8CF-5D8B-4831-AD9A-68E97BBA3DB7*
G04*
G04*
G04 #@! TF.FilePolarity,Negative*
G04*
G01*
G75*
%ADD14C,0.1000*%
%ADD28C,1.7032*%
%ADD29R,1.7032X1.7032*%
%ADD30C,1.4032*%
%ADD31C,2.2032*%
%ADD32R,1.7032X1.7032*%
%ADD33C,1.8032*%
%ADD34R,2.8032X2.8032*%
%ADD35C,0.8032*%
D14*
X01125000Y00925000D02*
G03*
X01175000Y00875000I00050000J00000000D01*
G01*
X01625000Y01325000D02*
G03*
X01575000Y01375000I-00050000J00000000D01*
G01*
Y00875000D02*
G03*
X01625000Y00925000I00000000J00050000D01*
G01*
X01175000Y01375000D02*
G03*
X01125000Y01325000I00000000J-00050000D01*
G01*
X01125000Y00925000D02*
X01125000Y01325000D01*
X01625000Y00925000D02*
Y01325000D01*
X01175000Y00875000D02*
X01575000Y00875000D01*
X01175000Y01375000D02*
X01575000D01*
D28*
X01362500Y01270000D02*
D03*
X01505000Y00962500D02*
D03*
X01185000D02*
D03*
X01192500Y01125000D02*
D03*
X01559750Y01294000D02*
D03*
D29*
X01387500Y01270000D02*
D03*
X01217500Y01125000D02*
D03*
D30*
X01362300Y00975000D02*
D03*
X01387700D02*
D03*
X01565000Y01000000D02*
D03*
Y00950000D02*
D03*
X01245000Y01000000D02*
D03*
Y00950000D02*
D03*
D31*
X01565000Y00905000D02*
D03*
X01505000D02*
D03*
X01245000D02*
D03*
X01185000D02*
D03*
X01387700D02*
D03*
X01395000Y01325000D02*
D03*
X01355000D02*
D03*
X01445000Y00905000D02*
D03*
D32*
X01505000Y00987500D02*
D03*
X01185000D02*
D03*
X01559750Y01319000D02*
D03*
D33*
X01350000Y01090000D02*
D03*
X01400000D02*
D03*
X01375000D02*
D03*
D34*
X01419000Y01160000D02*
D03*
X01331000D02*
D03*
D35*
X01522750Y01221250D02*
D03*
X01441750Y01311250D02*
D03*
X01531500Y01041000D02*
D03*
X01305000Y00986750D02*
D03*
X01447250Y01139500D02*
D03*
M02*
