G04*
G04 #@! TF.GenerationSoftware,Altium Limited,Altium Designer,20.2.7 (254)*
G04*
G04 Layer_Physical_Order=1*
G04 Layer_Color=255*
%FSAX44Y44*%
%MOMM*%
G71*
G04*
G04 #@! TF.SameCoordinates,51ACB8CF-5D8B-4831-AD9A-68E97BBA3DB7*
G04*
G04*
G04 #@! TF.FilePolarity,Positive*
G04*
G01*
G75*
%ADD14C,0.1000*%
%ADD15R,0.9000X0.6000*%
%ADD16R,0.6000X0.9000*%
%ADD17R,2.0000X0.6000*%
%ADD18R,0.7000X1.0000*%
%ADD19R,0.8000X1.2000*%
%ADD20R,1.5000X2.1000*%
%ADD21C,0.1520*%
%ADD36C,0.4000*%
%ADD37C,1.5000*%
%ADD38R,1.5000X1.5000*%
%ADD39C,1.2000*%
%ADD40C,2.0000*%
%ADD41R,1.5000X1.5000*%
%ADD42C,1.6000*%
%ADD43R,2.6000X2.6000*%
%ADD44C,0.6000*%
D14*
X01125000Y00925000D02*
G03*
X01175000Y00875000I00050000J00000000D01*
G01*
X01625000Y01325000D02*
G03*
X01575000Y01375000I-00050000J00000000D01*
G01*
Y00875000D02*
G03*
X01625000Y00925000I00000000J00050000D01*
G01*
X01175000Y01375000D02*
G03*
X01125000Y01325000I00000000J-00050000D01*
G01*
X01125000Y00925000D02*
X01125000Y01325000D01*
X01625000Y00925000D02*
Y01325000D01*
X01175000Y00875000D02*
X01575000Y00875000D01*
X01175000Y01375000D02*
X01575000D01*
D15*
X01531500Y01071750D02*
D03*
Y01058250D02*
D03*
X01416750Y01255250D02*
D03*
Y01241750D02*
D03*
X01275000Y01000250D02*
D03*
Y00986750D02*
D03*
X01540000Y01246750D02*
D03*
Y01260250D02*
D03*
X01416750Y01298250D02*
D03*
Y01284750D02*
D03*
X01540000Y01221250D02*
D03*
Y01234750D02*
D03*
D16*
X01519500Y01276250D02*
D03*
X01506000D02*
D03*
Y01291250D02*
D03*
X01519500D02*
D03*
X01268250Y01125000D02*
D03*
X01281750D02*
D03*
X01334000Y00975000D02*
D03*
X01320500D02*
D03*
D17*
X01472250Y01292750D02*
D03*
Y01273750D02*
D03*
D18*
X01432250Y01270250D02*
D03*
X01451250D02*
D03*
X01432250Y01296250D02*
D03*
X01451250D02*
D03*
X01441750D02*
D03*
D19*
X01544050Y01152500D02*
D03*
Y01097500D02*
D03*
X01531350Y01152500D02*
D03*
Y01097500D02*
D03*
X01518650Y01152500D02*
D03*
X01505950D02*
D03*
Y01097500D02*
D03*
X01518650D02*
D03*
D20*
X01515050Y01318750D02*
D03*
X01472250D02*
D03*
D21*
X01141520Y01294641D02*
Y01302768D01*
X01145584D01*
X01146938Y01301414D01*
Y01298705D01*
X01145584Y01297350D01*
X01141520D01*
X01149647Y01300059D02*
X01151002D01*
Y01298705D01*
X01149647D01*
Y01300059D01*
Y01295995D02*
X01151002D01*
Y01294641D01*
X01149647D01*
Y01295995D01*
X01164548Y01302768D02*
Y01294641D01*
X01169966D01*
X01172675D02*
X01175384D01*
X01174029D01*
Y01300059D01*
X01172675D01*
X01184866Y01291932D02*
Y01300059D01*
X01180802D01*
X01179448Y01298705D01*
Y01295995D01*
X01180802Y01294641D01*
X01184866D01*
X01187575Y01300059D02*
Y01295995D01*
X01188930Y01294641D01*
X01192993D01*
Y01300059D01*
X01195703Y01294641D02*
X01198412D01*
X01197057D01*
Y01300059D01*
X01195703D01*
X01207894Y01302768D02*
Y01294641D01*
X01203830D01*
X01202475Y01295995D01*
Y01298705D01*
X01203830Y01300059D01*
X01207894D01*
X01218730Y01302768D02*
Y01294641D01*
X01222794D01*
X01224148Y01295995D01*
Y01297350D01*
X01222794Y01298705D01*
X01218730D01*
X01222794D01*
X01224148Y01300059D01*
Y01301414D01*
X01222794Y01302768D01*
X01218730D01*
X01228212Y01294641D02*
X01230921D01*
X01232276Y01295995D01*
Y01298705D01*
X01230921Y01300059D01*
X01228212D01*
X01226858Y01298705D01*
Y01295995D01*
X01228212Y01294641D01*
X01234985D02*
X01239049D01*
X01240403Y01295995D01*
X01239049Y01297350D01*
X01236339D01*
X01234985Y01298705D01*
X01236339Y01300059D01*
X01240403D01*
X01243112Y01294641D02*
X01247176D01*
X01248531Y01295995D01*
X01247176Y01297350D01*
X01244467D01*
X01243112Y01298705D01*
X01244467Y01300059D01*
X01248531D01*
X01252594Y01301414D02*
Y01300059D01*
X01251240D01*
X01253949D01*
X01252594D01*
Y01295995D01*
X01253949Y01294641D01*
X01262076D02*
X01259367D01*
X01258012Y01295995D01*
Y01298705D01*
X01259367Y01300059D01*
X01262076D01*
X01263431Y01298705D01*
Y01297350D01*
X01258012D01*
X01266140Y01300059D02*
Y01294641D01*
Y01297350D01*
X01267495Y01298705D01*
X01268849Y01300059D01*
X01270204D01*
X01286458Y01294641D02*
Y01302768D01*
X01282395Y01298705D01*
X01287813D01*
X01290522Y01301414D02*
X01291877Y01302768D01*
X01294586D01*
X01295940Y01301414D01*
Y01295995D01*
X01294586Y01294641D01*
X01291877D01*
X01290522Y01295995D01*
Y01301414D01*
X01304068Y01302768D02*
Y01294641D01*
X01300004D01*
X01298649Y01295995D01*
Y01298705D01*
X01300004Y01300059D01*
X01304068D01*
X01306777Y01302768D02*
Y01294641D01*
X01310841D01*
X01312195Y01295995D01*
Y01297350D01*
X01310841Y01298705D01*
X01306777D01*
X01310841D01*
X01312195Y01300059D01*
Y01301414D01*
X01310841Y01302768D01*
X01306777D01*
X01141520Y01286658D02*
Y01278531D01*
X01145584D01*
X01146938Y01279885D01*
Y01285304D01*
X01145584Y01286658D01*
X01141520D01*
X01149647Y01283949D02*
X01151002D01*
Y01282594D01*
X01149647D01*
Y01283949D01*
Y01279885D02*
X01151002D01*
Y01278531D01*
X01149647D01*
Y01279885D01*
X01164548Y01278531D02*
Y01286658D01*
X01167257Y01283949D01*
X01169966Y01286658D01*
Y01278531D01*
X01172675D02*
Y01279885D01*
X01174029D01*
Y01278531D01*
X01172675D01*
X01187575Y01286658D02*
Y01278531D01*
Y01281240D01*
X01192993Y01286658D01*
X01188930Y01282594D01*
X01192993Y01278531D01*
X01197057D02*
X01199766D01*
X01201121Y01279885D01*
Y01282594D01*
X01199766Y01283949D01*
X01197057D01*
X01195703Y01282594D01*
Y01279885D01*
X01197057Y01278531D01*
X01203830Y01283949D02*
Y01279885D01*
X01205184Y01278531D01*
X01206539Y01279885D01*
X01207894Y01278531D01*
X01209248Y01279885D01*
Y01283949D01*
X01213312D02*
X01216021D01*
X01217376Y01282594D01*
Y01278531D01*
X01213312D01*
X01211957Y01279885D01*
X01213312Y01281240D01*
X01217376D01*
X01220085Y01278531D02*
X01222794D01*
X01221439D01*
Y01286658D01*
X01220085D01*
X01232276Y01283949D02*
X01228212D01*
X01226858Y01282594D01*
Y01279885D01*
X01228212Y01278531D01*
X01232276D01*
X01234985Y01283949D02*
X01240403D01*
X01234985Y01278531D01*
X01240403D01*
X01243112Y01283949D02*
Y01279885D01*
X01244467Y01278531D01*
X01248531D01*
Y01277176D01*
X01247176Y01275822D01*
X01245822D01*
X01248531Y01278531D02*
Y01283949D01*
X01251240Y01278531D02*
Y01286658D01*
Y01281240D02*
X01255303Y01283949D01*
X01251240Y01281240D02*
X01255303Y01278531D01*
X01141520Y01262421D02*
X01144229D01*
X01142875D01*
Y01270548D01*
X01141520Y01269194D01*
X01148293D02*
X01149647Y01270548D01*
X01152356D01*
X01153711Y01269194D01*
Y01267839D01*
X01152356Y01266485D01*
X01151002D01*
X01152356D01*
X01153711Y01265130D01*
Y01263775D01*
X01152356Y01262421D01*
X01149647D01*
X01148293Y01263775D01*
X01156420Y01262421D02*
Y01263775D01*
X01157775D01*
Y01262421D01*
X01156420D01*
X01163193D02*
X01165902D01*
X01164548D01*
Y01270548D01*
X01163193Y01269194D01*
X01169966D02*
X01171320Y01270548D01*
X01174029D01*
X01175384Y01269194D01*
Y01263775D01*
X01174029Y01262421D01*
X01171320D01*
X01169966Y01263775D01*
Y01269194D01*
X01178093Y01262421D02*
Y01263775D01*
X01179448D01*
Y01262421D01*
X01178093D01*
X01190284D02*
X01184866D01*
X01190284Y01267839D01*
Y01269194D01*
X01188930Y01270548D01*
X01186221D01*
X01184866Y01269194D01*
X01192993D02*
X01194348Y01270548D01*
X01197057D01*
X01198412Y01269194D01*
Y01263775D01*
X01197057Y01262421D01*
X01194348D01*
X01192993Y01263775D01*
Y01269194D01*
X01206539Y01262421D02*
X01201121D01*
X01206539Y01267839D01*
Y01269194D01*
X01205184Y01270548D01*
X01202475D01*
X01201121Y01269194D01*
X01209248Y01262421D02*
X01211957D01*
X01210603D01*
Y01270548D01*
X01209248Y01269194D01*
X01141520Y01257147D02*
Y01251729D01*
X01144229Y01249020D01*
X01146938Y01251729D01*
Y01257147D01*
X01149647Y01254438D02*
X01151002D01*
Y01253084D01*
X01149647D01*
Y01254438D01*
Y01250375D02*
X01151002D01*
Y01249020D01*
X01149647D01*
Y01250375D01*
X01164548Y01249020D02*
X01167257D01*
X01165902D01*
Y01257147D01*
X01164548Y01255793D01*
X01171320Y01249020D02*
Y01250375D01*
X01172675D01*
Y01249020D01*
X01171320D01*
X01178093Y01255793D02*
X01179448Y01257147D01*
X01182157D01*
X01183512Y01255793D01*
Y01250375D01*
X01182157Y01249020D01*
X01179448D01*
X01178093Y01250375D01*
Y01255793D01*
D36*
X01522750Y01221250D02*
X01540000D01*
X01522750Y01221250D02*
X01522750Y01221250D01*
X01559750Y01281750D02*
Y01294000D01*
X01554250Y01276250D02*
X01559750Y01281750D01*
X01519500Y01276250D02*
X01554250D01*
X01562000Y01221250D02*
X01569500Y01213750D01*
X01540000Y01221250D02*
X01562000D01*
X01569500Y01103750D02*
Y01213750D01*
X01544050Y01097500D02*
X01563250D01*
X01569500Y01103750D01*
X01441750Y01296250D02*
Y01311250D01*
X01355000Y01344500D02*
X01360000Y01349500D01*
X01355000Y01325000D02*
Y01344500D01*
X01360000Y01349500D02*
X01413000D01*
X01416750Y01345750D01*
Y01298250D02*
Y01345750D01*
X01455500Y01124000D02*
X01462750Y01131250D01*
X01531350Y01133593D02*
Y01152500D01*
X01529007Y01131250D02*
X01531350Y01133593D01*
X01462750Y01131250D02*
X01529007D01*
X01467000Y01120250D02*
X01470000Y01123250D01*
X01544050Y01125593D02*
Y01152500D01*
X01541707Y01123250D02*
X01544050Y01125593D01*
X01470000Y01123250D02*
X01541707D01*
X01455500Y01100250D02*
Y01124000D01*
X01400000Y01090000D02*
X01445250D01*
X01455500Y01100250D01*
X01375000Y01090000D02*
X01400000D01*
X01290250Y01064000D02*
X01446250D01*
X01275000Y01048750D02*
X01290250Y01064000D01*
X01446250D02*
X01467000Y01084750D01*
Y01120250D01*
X01453250Y01048000D02*
X01476250Y01071000D01*
Y01109000D01*
X01339500Y01048000D02*
X01453250D01*
X01320500Y01029000D02*
X01339500Y01048000D01*
X01320500Y00975000D02*
Y01029000D01*
X01476250Y01109000D02*
X01483250Y01116000D01*
X01554500D01*
X01275000Y00986750D02*
X01305000D01*
X01305000Y00986750D01*
X01185000Y00987500D02*
Y01077750D01*
X01197250Y01090000D02*
X01350000D01*
X01185000Y01077750D02*
X01197250Y01090000D01*
X01447250Y01139500D02*
X01515720D01*
X01518650Y01142430D01*
Y01152500D01*
X01590500Y01072762D02*
Y01227500D01*
X01583250Y01234750D02*
X01590500Y01227500D01*
X01531500Y01041000D02*
Y01058250D01*
X01540000Y01234750D02*
X01583250D01*
X01531500Y01058250D02*
X01575988D01*
X01590500Y01072762D01*
X01540000Y01234750D02*
Y01246750D01*
X01584000Y01260250D02*
X01595500Y01271750D01*
X01540000Y01260250D02*
X01584000D01*
X01507000D02*
X01540000D01*
X01488250Y01241500D02*
X01507000Y01260250D01*
X01488250Y01157000D02*
Y01241500D01*
Y01157000D02*
X01492750Y01152500D01*
X01505950D01*
X01432250Y01296250D02*
Y01331750D01*
X01437500Y01337000D02*
X01489250D01*
X01432250Y01331750D02*
X01437500Y01337000D01*
X01492750Y01294000D02*
Y01333500D01*
X01489250Y01337000D02*
X01492750Y01333500D01*
Y01294000D02*
X01495500Y01291250D01*
X01506000D01*
X01559000Y01120500D02*
Y01170750D01*
X01554500Y01116000D02*
X01559000Y01120500D01*
X01505950Y01170200D02*
X01511500Y01175750D01*
X01505950Y01152500D02*
Y01170200D01*
X01554000Y01175750D02*
X01559000Y01170750D01*
X01511500Y01175750D02*
X01554000D01*
X01275000Y01000250D02*
Y01048750D01*
X01505000Y01096550D02*
X01505950Y01097500D01*
X01505000Y00987500D02*
Y01096550D01*
X01281750Y01125000D02*
X01363250D01*
X01375000Y01113250D01*
Y01090000D02*
Y01113250D01*
X01520000Y01071750D02*
X01531500D01*
X01516500Y01068250D02*
X01520000Y01071750D01*
X01516500Y01013500D02*
Y01068250D01*
X01530000Y01000000D02*
X01565000D01*
X01516500Y01013500D02*
X01530000Y01000000D01*
X01559750Y01319000D02*
X01560000Y01319250D01*
X01588250D02*
X01595500Y01312000D01*
X01560000Y01319250D02*
X01588250D01*
X01595500Y01271750D02*
Y01312000D01*
X01531350Y01097500D02*
X01531500Y01097350D01*
Y01071750D02*
Y01097350D01*
X01505950Y01097500D02*
X01518650D01*
X01505000Y00905000D02*
Y00962500D01*
X01565000Y00905000D02*
Y00950000D01*
X01387700Y00905000D02*
Y00975000D01*
X01245000Y01000000D02*
X01274750D01*
X01275000Y01000250D01*
X01245000Y00905000D02*
Y00950000D01*
X01334000Y00975000D02*
X01362300D01*
X01217500Y01125000D02*
X01268250D01*
X01185000Y00905000D02*
Y00962500D01*
X01515050Y01318750D02*
X01559500D01*
X01559750Y01319000D01*
X01452750Y01273000D02*
X01471500D01*
X01472250Y01273750D01*
X01451250Y01271500D02*
X01452750Y01273000D01*
X01451250Y01247750D02*
Y01271500D01*
X01471250Y01293750D02*
X01472250Y01292750D01*
X01452750Y01293750D02*
X01471250D01*
X01451250Y01295250D02*
X01452750Y01293750D01*
X01451250Y01295250D02*
Y01296250D01*
X01506000Y01276250D02*
Y01291250D01*
X01515050Y01318750D02*
X01519500Y01314300D01*
Y01291250D02*
Y01314300D01*
X01417000Y01255000D02*
X01428500D01*
X01432250Y01258750D02*
Y01270250D01*
X01428500Y01255000D02*
X01432250Y01258750D01*
X01416750Y01255250D02*
X01417000Y01255000D01*
X01416750Y01255750D02*
Y01284750D01*
Y01255250D02*
Y01255750D01*
X01387500Y01270000D02*
Y01291500D01*
Y01244250D02*
Y01270000D01*
X01401666Y01241750D02*
X01416750D01*
X01445250D02*
X01451250Y01247750D01*
X01416750Y01241750D02*
X01445250D01*
X01472250Y01292750D02*
Y01318750D01*
Y01292750D02*
X01472250Y01292750D01*
X01387500Y01244250D02*
X01390224Y01241526D01*
X01401443D02*
X01401666Y01241750D01*
X01390224Y01241526D02*
X01401443D01*
X01395000Y01299000D02*
Y01325000D01*
X01387500Y01291500D02*
X01395000Y01299000D01*
D37*
X01362500Y01270000D02*
D03*
X01505000Y00962500D02*
D03*
X01185000D02*
D03*
X01192500Y01125000D02*
D03*
X01559750Y01294000D02*
D03*
D38*
X01387500Y01270000D02*
D03*
X01217500Y01125000D02*
D03*
D39*
X01362300Y00975000D02*
D03*
X01387700D02*
D03*
X01565000Y01000000D02*
D03*
Y00950000D02*
D03*
X01245000Y01000000D02*
D03*
Y00950000D02*
D03*
D40*
X01565000Y00905000D02*
D03*
X01505000D02*
D03*
X01245000D02*
D03*
X01185000D02*
D03*
X01387700D02*
D03*
X01395000Y01325000D02*
D03*
X01355000D02*
D03*
X01445000Y00905000D02*
D03*
D41*
X01505000Y00987500D02*
D03*
X01185000D02*
D03*
X01559750Y01319000D02*
D03*
D42*
X01350000Y01090000D02*
D03*
X01400000D02*
D03*
X01375000D02*
D03*
D43*
X01419000Y01160000D02*
D03*
X01331000D02*
D03*
D44*
X01522750Y01221250D02*
D03*
X01441750Y01311250D02*
D03*
X01531500Y01041000D02*
D03*
X01305000Y00986750D02*
D03*
X01447250Y01139500D02*
D03*
M02*
